<svg width="340" height="240" viewBox="0 0 680 480" xmlns="http://www.w3.org/2000/svg">
<defs>
  <linearGradient id="blobGrad" x1="0%" y1="0%" x2="100%" y2="100%">
    <stop offset="0%" stop-color="#C9DBF5"/>
    <stop offset="50%" stop-color="#DCC9F0"/>
    <stop offset="100%" stop-color="#F3C9DD"/>
  </linearGradient>
</defs>

<path d="M160 40 Q280 10 400 40 Q520 70 540 170 Q560 270 480 340 Q400 410 280 400 Q160 390 120 300 Q80 210 100 130 Q120 70 160 40 Z" fill="url(#blobGrad)"/>
<circle cx="500" cy="80" r="10" fill="#C9B8F2"/>
<circle cx="140" cy="360" r="8" fill="#C9B8F2"/>

<rect x="250" y="130" width="230" height="180" rx="10" fill="#FBF9FF" stroke="#7C6FC4" stroke-width="2"/>
<rect x="250" y="130" width="26" height="180" fill="#7C6FC4"/>
<circle cx="263" cy="150" r="4" fill="#EDE6FA"/>
<circle cx="263" cy="168" r="4" fill="#EDE6FA"/>
<circle cx="263" cy="186" r="4" fill="#EDE6FA"/>
<circle cx="263" cy="204" r="4" fill="#EDE6FA"/>

<rect x="292" y="150" width="70" height="8" rx="4" fill="#7C6FC4"/>
<rect x="292" y="166" width="90" height="8" rx="4" fill="#D9CDF0"/>
<rect x="292" y="182" width="60" height="8" rx="4" fill="#D9CDF0"/>
<rect x="292" y="200" width="80" height="20" rx="4" fill="#F3B8D6"/>
<rect x="292" y="228" width="50" height="8" rx="4" fill="#D9CDF0"/>
<rect x="292" y="244" width="70" height="8" rx="4" fill="#D9CDF0"/>

<circle cx="405" cy="200" r="34" fill="#F3B8D6"/>
<path d="M405 200 L405 166 A34 34 0 0 1 435 218 Z" fill="#7C6FC4"/>
<path d="M405 200 L435 218 A34 34 0 0 1 383 228 Z" fill="#A79BDC"/>

<circle cx="452" cy="160" r="3" fill="#7C6FC4"/>
<rect x="460" y="157" width="14" height="6" rx="3" fill="#D9CDF0"/>
<circle cx="452" cy="176" r="3" fill="#7C6FC4"/>
<rect x="460" y="173" width="14" height="6" rx="3" fill="#D9CDF0"/>
<circle cx="452" cy="192" r="3" fill="#7C6FC4"/>
<rect x="460" y="189" width="14" height="6" rx="3" fill="#D9CDF0"/>

<rect x="330" y="330" width="10" height="30" fill="#D9CDF0"/>
<rect x="345" y="315" width="10" height="45" fill="#7C6FC4"/>
<rect x="360" y="325" width="10" height="35" fill="#F3B8D6"/>
<rect x="375" y="300" width="10" height="60" fill="#D9CDF0"/>
<line x1="320" y1="360" x2="400" y2="360" stroke="#7C6FC4" stroke-width="1.5"/>

<g>
  <ellipse cx="160" cy="390" rx="48" ry="10" fill="#C9B8F2" opacity="0.5"/>
  <rect x="140" y="315" width="38" height="72" rx="12" fill="#7C6FC4"/>
  <circle cx="159" cy="292" r="21" fill="#f4c9a8"/>
  <path d="M138 288 Q159 260 180 288 L180 277 Q159 254 138 277 Z" fill="#2b2f3a"/>
  <rect x="118" y="330" width="40" height="55" rx="6" fill="#FBF9FF" stroke="#7C6FC4" stroke-width="1.5"/>
  <rect x="126" y="345" width="6" height="30" fill="#D9CDF0"/>
  <rect x="136" y="335" width="6" height="40" fill="#7C6FC4"/>
  <rect x="146" y="355" width="6" height="20" fill="#F3B8D6"/>
  <rect x="146" y="382" width="12" height="26" rx="5" fill="#2b2f3a"/>
  <rect x="162" y="382" width="12" height="26" rx="5" fill="#2b2f3a"/>
</g>

<g>
  <ellipse cx="530" cy="380" rx="44" ry="9" fill="#C9B8F2" opacity="0.5"/>
  <rect x="512" y="310" width="36" height="68" rx="12" fill="#F3B8D6"/>
  <circle cx="530" cy="288" r="19" fill="#f4c9a8"/>
  <path d="M511 284 Q530 259 549 284 L549 274 Q530 253 511 274 Z" fill="#2b2f3a"/>
  <rect x="548" y="322" width="36" height="46" rx="6" fill="#FBF9FF" stroke="#7C6FC4" stroke-width="1.5"/>
  <rect x="556" y="332" width="20" height="6" rx="3" fill="#7C6FC4"/>
  <rect x="556" y="344" width="20" height="6" rx="3" fill="#D9CDF0"/>
  <rect x="556" y="356" width="20" height="6" rx="3" fill="#D9CDF0"/>
  <rect x="518" y="374" width="11" height="24" rx="5" fill="#2b2f3a"/>
  <rect x="533" y="374" width="11" height="24" rx="5" fill="#2b2f3a"/>
</g>
</svg>
